<svg xmlns="http://www.w3.org/2000/svg" xmlns:xlink="http://www.w3.org/1999/xlink" version="1.1" width="256" height="256" viewBox="0 0 256 256" xml:space="preserve">

<defs>
</defs>
<g style="stroke: none; stroke-width: 0; stroke-dasharray: none; stroke-linecap: butt; stroke-linejoin: miter; stroke-miterlimit: 10; fill: none; fill-rule: nonzero; opacity: 1;" transform="translate(1.4065934065934016 1.4065934065934016) scale(2.81 2.81)" >
	<path d="M 89 62.514 H 53.8 H 37.2 V 44.904 c 0 -0.552 -0.448 -1 -1 -1 H 19.6 V 26.295 c 0 -0.552 -0.448 -1 -1 -1 H 1 c -0.552 0 -1 0.448 -1 1 v 18.609 v 18.609 v 18.608 c 0 0.553 0.448 1 1 1 h 17.6 h 35.2 H 89 c 0.553 0 1 -0.447 1 -1 V 63.514 C 90 62.961 89.553 62.514 89 62.514 z M 35.2 62.514 H 18.6 H 2 V 45.904 h 16.6 h 16.6 V 62.514 z M 2 27.295 h 15.6 v 16.609 H 2 V 27.295 z M 2 64.514 h 15.6 v 16.608 H 2 V 64.514 z M 19.6 64.514 h 16.6 h 16.6 v 16.608 H 19.6 V 64.514 z M 88 81.122 H 54.8 V 64.514 H 88 V 81.122 z" style="stroke: none; stroke-width: 1; stroke-dasharray: none; stroke-linecap: butt; stroke-linejoin: miter; stroke-miterlimit: 10; fill: rgb(0,0,0); fill-rule: nonzero; opacity: 1;" transform=" matrix(1 0 0 1 0 0) " stroke-linecap="round" />
	<path d="M 77.073 23.947 c 1.062 0 2.123 -0.404 2.931 -1.211 l 8.782 -8.783 c 1.615 -1.616 1.615 -4.245 0 -5.861 c -1.615 -1.616 -4.246 -1.615 -5.861 0 l -8.782 8.782 c -1.37 1.371 -1.565 3.466 -0.611 5.058 l -3.094 3.094 l -9.514 -9.514 c -0.244 -0.245 -0.598 -0.347 -0.937 -0.266 c -0.338 0.08 -0.609 0.328 -0.719 0.657 L 49.053 46.561 c -0.12 0.359 -0.026 0.756 0.241 1.023 c 0.19 0.19 0.446 0.293 0.707 0.293 c 0.105 0 0.213 -0.017 0.316 -0.052 L 80.975 37.61 c 0.328 -0.109 0.577 -0.382 0.657 -0.719 c 0.079 -0.337 -0.021 -0.692 -0.267 -0.937 l -9.514 -9.514 l 3.094 -3.094 C 75.6 23.738 76.334 23.947 77.073 23.947 z M 78.807 36.225 l -27.225 9.072 l 9.072 -27.226 l 8.369 8.37 l -2.329 2.329 c -0.391 0.391 -0.391 1.023 0 1.414 c 0.195 0.195 0.451 0.293 0.707 0.293 s 0.512 -0.098 0.707 -0.293 l 2.329 -2.329 L 78.807 36.225 z M 75.557 18.288 l 8.782 -8.782 c 0.418 -0.418 0.968 -0.627 1.517 -0.627 s 1.099 0.209 1.517 0.627 c 0.836 0.836 0.836 2.197 0 3.033 l -8.782 8.782 c -0.836 0.836 -2.197 0.835 -3.033 0 C 74.721 20.485 74.721 19.125 75.557 18.288 z" style="stroke: none; stroke-width: 1; stroke-dasharray: none; stroke-linecap: butt; stroke-linejoin: miter; stroke-miterlimit: 10; fill: rgb(0,0,0); fill-rule: nonzero; opacity: 1;" transform=" matrix(1 0 0 1 0 0) " stroke-linecap="round" />
</g>
</svg>