<svg xmlns="http://www.w3.org/2000/svg" xmlns:xlink="http://www.w3.org/1999/xlink" version="1.1" width="256" height="256" viewBox="0 0 256 256" xml:space="preserve">

<defs>
</defs>
<g style="stroke: none; stroke-width: 0; stroke-dasharray: none; stroke-linecap: butt; stroke-linejoin: miter; stroke-miterlimit: 10; fill: none; fill-rule: nonzero; opacity: 1;" transform="translate(1.4065934065934016 1.4065934065934016) scale(2.81 2.81)" >
	<path d="M 44.094 58.032 c 0.158 0.004 0.317 0.007 0.479 0.007 c 3.656 0 8.532 -1.28 10.271 -4.958 c 0.769 -2.006 -0.736 -3.932 -2.643 -6.372 c -1.307 -1.674 -2.895 -3.71 -4.057 -6.161 c 0.619 -0.253 1.197 -0.582 1.732 -0.969 c 3.553 2.616 7.141 3.959 10.601 3.959 c 1.631 0 3.233 -0.294 4.791 -0.888 c 2.949 -1.181 4.791 -4.509 4.929 -8.903 c 0.128 -4.126 -1.319 -9.037 -4.842 -10.708 c -0.003 -0.001 -0.007 -0.003 -0.01 -0.005 c -0.021 -0.009 -0.079 -0.034 -0.1 -0.042 c -2.004 -0.767 -3.933 0.737 -6.373 2.644 c -1.672 1.307 -3.707 2.894 -6.159 4.057 c -0.252 -0.617 -0.58 -1.194 -0.966 -1.727 c 3.852 -5.229 4.92 -10.534 3.066 -15.396 c -1.181 -2.949 -4.509 -4.792 -8.903 -4.929 c -4.134 -0.133 -9.04 1.326 -10.755 4.951 c -0.768 2.006 0.737 3.932 2.644 6.372 c 1.307 1.673 2.895 3.71 4.058 6.161 c -0.617 0.252 -1.194 0.579 -1.726 0.965 c -5.231 -3.85 -10.535 -4.919 -15.396 -3.066 c -2.95 1.18 -4.792 4.508 -4.929 8.902 c -0.129 4.126 1.33 9.042 4.949 10.754 c 0.368 0.142 0.732 0.207 1.099 0.207 c 1.631 0 3.282 -1.291 5.275 -2.849 c 1.674 -1.307 3.711 -2.896 6.161 -4.058 c 0.252 0.617 0.579 1.194 0.965 1.727 c -3.851 5.231 -4.92 10.535 -3.066 15.396 C 36.368 56.052 39.696 57.895 44.094 58.032 z M 46.54 38.971 c -0.255 0.064 -0.504 0.11 -0.749 0.142 c -0.015 0.002 -0.03 0.005 -0.045 0.007 c -0.251 0.032 -0.499 0.048 -0.746 0.048 c -0.224 0 -0.447 -0.012 -0.667 -0.036 c -0.021 -0.002 -0.042 -0.007 -0.063 -0.01 c -0.201 -0.024 -0.4 -0.054 -0.597 -0.097 c -0.014 -0.003 -0.027 -0.007 -0.041 -0.01 c -0.203 -0.045 -0.403 -0.099 -0.6 -0.164 c -0.012 -0.004 -0.024 -0.009 -0.037 -0.013 c -0.195 -0.066 -0.388 -0.14 -0.576 -0.225 c -0.018 -0.008 -0.034 -0.017 -0.052 -0.025 c -0.18 -0.083 -0.357 -0.174 -0.529 -0.274 c -0.023 -0.013 -0.045 -0.028 -0.068 -0.041 c -0.164 -0.098 -0.325 -0.203 -0.48 -0.316 c -0.026 -0.019 -0.051 -0.038 -0.076 -0.057 c -0.151 -0.113 -0.297 -0.233 -0.438 -0.359 c -0.024 -0.021 -0.048 -0.043 -0.071 -0.065 c -0.142 -0.132 -0.279 -0.271 -0.41 -0.417 c -0.678 -0.755 -1.177 -1.672 -1.431 -2.687 c -0.064 -0.255 -0.111 -0.509 -0.144 -0.76 c -0.001 -0.008 -0.003 -0.016 -0.004 -0.024 c -0.032 -0.255 -0.049 -0.506 -0.049 -0.753 c 0 -0.224 0.012 -0.447 0.036 -0.667 c 0.002 -0.022 0.008 -0.044 0.01 -0.066 c 0.023 -0.2 0.054 -0.398 0.096 -0.593 c 0.003 -0.015 0.008 -0.03 0.012 -0.046 c 0.045 -0.201 0.098 -0.4 0.163 -0.595 c 0.005 -0.014 0.011 -0.028 0.015 -0.042 c 0.065 -0.193 0.139 -0.384 0.223 -0.57 c 0.009 -0.019 0.019 -0.038 0.028 -0.057 c 0.082 -0.178 0.172 -0.353 0.271 -0.523 c 0.014 -0.025 0.03 -0.049 0.045 -0.074 c 0.097 -0.162 0.201 -0.321 0.312 -0.475 c 0.02 -0.027 0.04 -0.053 0.06 -0.08 c 0.112 -0.15 0.231 -0.295 0.357 -0.435 c 0.022 -0.025 0.044 -0.049 0.067 -0.073 c 0.132 -0.142 0.271 -0.279 0.416 -0.41 c 0.754 -0.677 1.669 -1.175 2.682 -1.43 c 0.001 0 0.001 0 0.002 0 c 0.563 -0.141 1.12 -0.198 1.665 -0.191 c 0.108 0.002 0.215 0.009 0.321 0.016 c 0.133 0.009 0.264 0.023 0.395 0.04 c 0.135 0.018 0.27 0.035 0.402 0.062 c 0.087 0.017 0.171 0.042 0.257 0.063 c 0.256 0.063 0.505 0.14 0.748 0.233 c 0.098 0.038 0.197 0.074 0.292 0.116 c 0.116 0.051 0.229 0.107 0.34 0.164 c 0.136 0.071 0.27 0.146 0.4 0.227 c 0.07 0.043 0.142 0.083 0.21 0.128 c 0.212 0.143 0.418 0.297 0.614 0.466 c 0.018 0.016 0.035 0.032 0.053 0.048 c 0.195 0.172 0.382 0.356 0.557 0.553 c 0.672 0.752 1.165 1.662 1.418 2.67 c 0 0.001 0 0.002 0 0.003 c 0.064 0.255 0.111 0.509 0.144 0.76 c 0.001 0.008 0.003 0.016 0.004 0.025 c 0.032 0.254 0.049 0.506 0.049 0.753 c 0 0.224 -0.012 0.447 -0.036 0.667 c -0.002 0.021 -0.007 0.041 -0.009 0.062 c -0.024 0.201 -0.054 0.401 -0.097 0.598 c -0.003 0.013 -0.007 0.026 -0.01 0.039 c -0.045 0.204 -0.1 0.405 -0.165 0.603 c -0.004 0.011 -0.009 0.022 -0.012 0.034 c -0.066 0.197 -0.141 0.39 -0.226 0.58 c -0.007 0.016 -0.016 0.031 -0.023 0.047 c -0.084 0.182 -0.176 0.361 -0.276 0.535 c -0.012 0.021 -0.026 0.042 -0.038 0.063 c -0.099 0.166 -0.205 0.328 -0.319 0.485 c -0.018 0.024 -0.036 0.048 -0.054 0.072 c -0.114 0.153 -0.236 0.301 -0.364 0.444 c -0.02 0.022 -0.039 0.044 -0.059 0.065 c -0.134 0.145 -0.276 0.285 -0.425 0.418 C 48.465 38.221 47.551 38.717 46.54 38.971 L 46.54 38.971 z M 53.244 31.652 c 2.813 -1.278 5.13 -3.089 6.859 -4.441 c 1.942 -1.517 3.479 -2.709 4.405 -2.36 c 2.563 1.227 3.796 5.37 3.688 8.833 c -0.11 3.575 -1.483 6.233 -3.657 7.103 c -4.084 1.558 -8.625 0.662 -13.176 -2.583 c 0 -0.001 0.001 -0.001 0.001 -0.002 c 0.127 -0.15 0.244 -0.307 0.359 -0.466 c 0.034 -0.046 0.07 -0.09 0.102 -0.137 c 0.104 -0.148 0.199 -0.302 0.293 -0.457 c 0.037 -0.061 0.076 -0.122 0.112 -0.184 c 0.086 -0.15 0.165 -0.304 0.242 -0.46 c 0.035 -0.072 0.071 -0.144 0.105 -0.217 c 0.069 -0.151 0.133 -0.305 0.193 -0.461 c 0.033 -0.085 0.064 -0.171 0.094 -0.257 c 0.051 -0.148 0.1 -0.297 0.143 -0.448 c 0.03 -0.105 0.056 -0.211 0.082 -0.317 c 0.033 -0.138 0.067 -0.275 0.094 -0.415 c 0.027 -0.14 0.045 -0.282 0.065 -0.423 c 0.015 -0.112 0.034 -0.223 0.045 -0.337 c 0.025 -0.261 0.04 -0.524 0.04 -0.789 c 0 -0.38 -0.035 -0.751 -0.084 -1.118 C 53.246 31.695 53.247 31.674 53.244 31.652 z M 43.818 24.591 c -1.268 -2.796 -3.016 -5.034 -4.443 -6.861 c -1.517 -1.941 -2.715 -3.475 -2.381 -4.354 c 1.232 -2.6 5.378 -3.847 8.854 -3.738 c 3.575 0.112 6.232 1.485 7.103 3.658 c 1.558 4.086 0.664 8.622 -2.582 13.175 c 0 0 0 0 -0.001 -0.001 c -0.152 -0.129 -0.312 -0.248 -0.474 -0.366 c -0.043 -0.031 -0.084 -0.065 -0.128 -0.096 c -0.151 -0.105 -0.307 -0.202 -0.464 -0.298 c -0.059 -0.036 -0.116 -0.073 -0.176 -0.107 c -0.152 -0.087 -0.309 -0.167 -0.467 -0.245 c -0.07 -0.034 -0.14 -0.069 -0.211 -0.102 c -0.153 -0.07 -0.308 -0.134 -0.465 -0.195 c -0.084 -0.032 -0.168 -0.063 -0.253 -0.093 c -0.149 -0.052 -0.299 -0.101 -0.452 -0.144 c -0.104 -0.03 -0.208 -0.055 -0.313 -0.081 c -0.139 -0.034 -0.277 -0.068 -0.418 -0.094 c -0.139 -0.027 -0.28 -0.045 -0.421 -0.064 c -0.113 -0.015 -0.224 -0.035 -0.338 -0.045 c -0.261 -0.025 -0.524 -0.04 -0.789 -0.04 c -0.38 0 -0.752 0.035 -1.119 0.084 C 43.86 24.59 43.839 24.588 43.818 24.591 z M 36.756 34.017 c -2.794 1.267 -5.033 3.016 -6.862 4.445 c -1.941 1.517 -3.475 2.716 -4.353 2.38 c -2.597 -1.23 -3.846 -5.386 -3.737 -8.854 c 0.111 -3.575 1.484 -6.232 3.658 -7.102 c 1.306 -0.498 2.658 -0.746 4.042 -0.746 c 2.945 0 6.035 1.12 9.133 3.328 c -0.001 0.001 -0.001 0.002 -0.002 0.002 c -0.125 0.148 -0.24 0.303 -0.354 0.459 c -0.035 0.048 -0.073 0.095 -0.108 0.144 c -0.102 0.146 -0.196 0.298 -0.289 0.451 c -0.038 0.063 -0.078 0.125 -0.115 0.189 c -0.085 0.148 -0.163 0.301 -0.239 0.455 c -0.037 0.074 -0.073 0.148 -0.108 0.223 c -0.068 0.15 -0.131 0.301 -0.191 0.455 c -0.034 0.087 -0.065 0.174 -0.096 0.262 c -0.051 0.147 -0.099 0.295 -0.142 0.445 c -0.03 0.105 -0.056 0.212 -0.082 0.318 c -0.033 0.137 -0.067 0.274 -0.093 0.414 c -0.027 0.14 -0.045 0.282 -0.065 0.424 c -0.015 0.112 -0.034 0.223 -0.045 0.336 c -0.025 0.261 -0.04 0.524 -0.04 0.789 c 0 0.38 0.035 0.752 0.084 1.119 C 36.755 33.975 36.753 33.996 36.756 34.017 z M 39.632 39.199 c 0.001 0.001 0.002 0.002 0.003 0.003 c 0.436 0.368 0.908 0.694 1.414 0.968 c 0.143 0.078 0.292 0.142 0.438 0.212 c 0.096 0.045 0.19 0.096 0.288 0.137 c 0.222 0.094 0.449 0.174 0.678 0.249 c 0.028 0.009 0.054 0.02 0.082 0.029 c 0.239 0.075 0.482 0.135 0.728 0.188 c 0.025 0.005 0.05 0.013 0.075 0.018 c 0.23 0.047 0.464 0.08 0.699 0.107 c 0.052 0.006 0.103 0.014 0.155 0.019 c 0.198 0.019 0.397 0.026 0.598 0.03 c 0.07 0.002 0.139 0.011 0.21 0.011 c 0.039 0 0.076 -0.005 0.115 -0.006 c 0.134 -0.003 0.268 -0.011 0.403 -0.02 c 0.197 -0.012 0.393 -0.03 0.586 -0.056 c 0.026 -0.004 0.052 -0.003 0.078 -0.007 c 1.267 2.797 3.015 5.034 4.443 6.863 c 1.517 1.941 2.714 3.474 2.381 4.353 c -1.22 2.573 -5.227 3.745 -8.434 3.745 c -0.144 0 -0.285 -0.003 -0.421 -0.007 c -3.574 -0.11 -6.231 -1.484 -7.102 -3.659 C 35.492 48.288 36.386 43.752 39.632 39.199 z" style="stroke: none; stroke-width: 1; stroke-dasharray: none; stroke-linecap: butt; stroke-linejoin: miter; stroke-miterlimit: 10; fill: rgb(0,0,0); fill-rule: nonzero; opacity: 1;" transform=" matrix(1 0 0 1 0 0) " stroke-linecap="round" />
	<path d="M 77.835 32.835 C 77.835 14.729 63.105 0 45 0 S 12.165 14.729 12.165 32.835 c 0 15.667 11.033 28.798 25.735 32.053 l -3.529 12.251 h -4.612 c -3.546 0 -6.431 2.885 -6.431 6.431 S 26.212 90 29.758 90 h 30.483 c 3.546 0 6.431 -2.885 6.431 -6.431 s -2.885 -6.431 -6.431 -6.431 h -4.612 L 52.1 64.888 C 66.802 61.633 77.835 48.502 77.835 32.835 z M 14.165 32.835 C 14.165 15.833 27.998 2 45 2 c 17.003 0 30.835 13.833 30.835 30.835 c 0 15.109 -10.925 27.705 -25.289 30.326 c -0.42 0.076 -0.841 0.146 -1.261 0.205 c -0.056 0.008 -0.113 0.014 -0.169 0.022 c -0.415 0.056 -0.83 0.105 -1.245 0.145 c -0.096 0.009 -0.193 0.014 -0.289 0.022 c -0.382 0.032 -0.765 0.062 -1.147 0.08 c -0.139 0.006 -0.28 0.006 -0.42 0.011 c -0.673 0.022 -1.346 0.022 -2.02 0 c -0.143 -0.005 -0.287 -0.004 -0.43 -0.011 c -0.38 -0.018 -0.759 -0.047 -1.139 -0.079 c -0.099 -0.008 -0.2 -0.014 -0.299 -0.023 c -0.413 -0.039 -0.826 -0.088 -1.239 -0.144 c -0.058 -0.008 -0.117 -0.014 -0.176 -0.022 c -0.419 -0.059 -0.838 -0.128 -1.257 -0.204 C 25.092 60.541 14.165 47.945 14.165 32.835 z M 64.672 83.569 c 0 2.443 -1.987 4.431 -4.431 4.431 H 29.758 c -2.443 0 -4.431 -1.987 -4.431 -4.431 s 1.988 -4.431 4.431 -4.431 h 5.365 h 3.236 v 3.503 c 0 0.553 0.448 1 1 1 s 1 -0.447 1 -1 v -3.503 H 44 v 3.503 c 0 0.553 0.448 1 1 1 s 1 -0.447 1 -1 v -3.503 h 3.641 v 3.503 c 0 0.553 0.447 1 1 1 s 1 -0.447 1 -1 v -3.503 h 3.236 h 5.364 C 62.685 79.139 64.672 81.126 64.672 83.569 z M 53.548 77.139 H 36.452 l 3.42 -11.872 c 0.793 0.125 1.597 0.215 2.408 0.281 c 0.113 0.01 0.227 0.018 0.34 0.026 c 0.787 0.057 1.579 0.096 2.38 0.096 c 0.802 0 1.594 -0.039 2.382 -0.096 c 0.112 -0.008 0.224 -0.016 0.336 -0.026 c 0.812 -0.067 1.616 -0.157 2.41 -0.282 L 53.548 77.139 z" style="stroke: none; stroke-width: 1; stroke-dasharray: none; stroke-linecap: butt; stroke-linejoin: miter; stroke-miterlimit: 10; fill: rgb(0,0,0); fill-rule: nonzero; opacity: 1;" transform=" matrix(1 0 0 1 0 0) " stroke-linecap="round" />
</g>
</svg>