<svg xmlns="http://www.w3.org/2000/svg" xmlns:xlink="http://www.w3.org/1999/xlink" version="1.1" width="256" height="256" viewBox="0 0 256 256" xml:space="preserve">

<defs>
</defs>
<g style="stroke: none; stroke-width: 0; stroke-dasharray: none; stroke-linecap: butt; stroke-linejoin: miter; stroke-miterlimit: 10; fill: none; fill-rule: nonzero; opacity: 1;" transform="translate(1.4065934065934016 1.4065934065934016) scale(2.81 2.81)" >
	<path d="M 64.235 90 c -0.435 0 -0.82 -0.28 -0.952 -0.695 c -0.413 -1.291 -0.806 -2.566 -1.191 -3.824 c -0.856 -2.785 -1.665 -5.415 -2.618 -7.963 c -1.424 -3.832 -3.02 -7.179 -4.878 -10.233 c -2.884 -4.863 -6.784 -9.083 -10.913 -13.551 c -1.249 -1.351 -2.527 -2.734 -3.819 -4.178 c -2.527 -2.828 -5.448 -6.158 -8.15 -9.904 c -2.979 -4.185 -5.161 -8.312 -6.488 -12.271 c -1.509 -4.412 -2.284 -8.971 -2.3 -13.546 c 0.013 -4.565 0.646 -8.977 1.882 -13.12 c 0.125 -0.42 0.51 -0.709 0.948 -0.714 c 0.434 0 0.829 0.276 0.962 0.693 c 0.425 1.318 0.827 2.621 1.223 3.904 c 0.851 2.757 1.654 5.36 2.601 7.882 c 1.426 3.829 3.022 7.174 4.879 10.229 c 1.749 2.893 3.849 5.696 6.61 8.826 c 1.292 1.493 2.648 2.952 4.083 4.496 c 1.316 1.417 2.679 2.883 4.03 4.42 c 2.685 3.021 5.526 6.278 8.135 9.906 c 2.953 4.138 5.134 8.265 6.482 12.268 c 1.507 4.413 2.281 8.971 2.301 13.543 c -0.009 4.552 -0.637 8.963 -1.866 13.116 c -0.125 0.421 -0.509 0.711 -0.948 0.716 C 64.242 90 64.239 90 64.235 90 z M 25.868 4.667 c -0.618 2.951 -0.934 6.021 -0.943 9.166 c 0.016 4.35 0.754 8.694 2.195 12.905 c 1.267 3.778 3.358 7.729 6.219 11.748 c 2.643 3.663 5.523 6.946 8.016 9.736 c 1.285 1.435 2.556 2.81 3.797 4.153 c 4.203 4.547 8.173 8.843 11.159 13.879 c 1.92 3.155 3.569 6.613 5.037 10.563 c 0.974 2.602 1.791 5.26 2.655 8.074 c 0.043 0.139 0.086 0.277 0.128 0.417 c 0.611 -2.948 0.924 -6.01 0.93 -9.14 c -0.019 -4.349 -0.757 -8.691 -2.194 -12.902 c -1.287 -3.82 -3.378 -7.771 -6.215 -11.745 c -2.551 -3.548 -5.354 -6.761 -8.008 -9.747 c -1.337 -1.521 -2.689 -2.976 -3.997 -4.383 c -1.448 -1.558 -2.815 -3.029 -4.124 -4.541 c -2.836 -3.215 -5.003 -6.11 -6.814 -9.105 c -1.922 -3.163 -3.572 -6.62 -5.042 -10.566 c -0.966 -2.576 -1.779 -5.207 -2.639 -7.992 C 25.975 5.014 25.921 4.841 25.868 4.667 z" style="stroke: none; stroke-width: 1; stroke-dasharray: none; stroke-linecap: butt; stroke-linejoin: miter; stroke-miterlimit: 10; fill: rgb(0,0,0); fill-rule: nonzero; opacity: 1;" transform=" matrix(1 0 0 1 0 0) " stroke-linecap="round" />
	<path d="M 73.399 56.2 c -0.375 0 -0.719 -0.21 -0.89 -0.544 c -0.657 -1.283 -1.236 -2.516 -1.796 -3.708 c -0.558 -1.188 -1.084 -2.31 -1.643 -3.384 c -1.153 -2.24 -2.297 -4.112 -3.496 -5.727 c -1.313 -1.805 -2.763 -3.397 -4.134 -4.85 c -0.486 -0.515 -0.989 -1.037 -1.506 -1.573 c -1.137 -1.18 -2.312 -2.4 -3.522 -3.761 c -1.578 -1.776 -3.399 -3.876 -5.059 -6.324 c -1.873 -2.762 -3.212 -5.544 -3.979 -8.268 c -0.859 -3.055 -1.159 -6.103 -0.892 -9.058 c 0.31 -3.131 1.069 -5.891 2.323 -8.445 C 48.974 0.22 49.317 0.004 49.695 0 c 0.396 0.02 0.726 0.207 0.898 0.542 c 0.664 1.288 1.247 2.525 1.811 3.721 c 0.558 1.183 1.084 2.3 1.643 3.369 c 1.163 2.252 2.307 4.123 3.497 5.724 c 1.34 1.839 2.775 3.417 4.128 4.85 c 0.476 0.504 0.966 1.015 1.469 1.538 c 1.146 1.193 2.332 2.427 3.552 3.806 c 1.658 1.878 3.412 3.914 5.047 6.331 c 1.866 2.75 3.203 5.531 3.973 8.266 c 0.858 3.05 1.158 6.096 0.893 9.053 c -0.305 3.123 -1.059 5.882 -2.307 8.44 c -0.166 0.341 -0.51 0.558 -0.889 0.562 C 73.406 56.2 73.402 56.2 73.399 56.2 z M 49.771 3.38 c -0.661 1.791 -1.088 3.71 -1.296 5.813 c -0.241 2.665 0.044 5.547 0.826 8.327 c 0.708 2.517 1.956 5.103 3.708 7.687 c 1.592 2.348 3.363 4.389 4.898 6.118 c 1.184 1.331 2.345 2.537 3.468 3.703 c 0.521 0.541 1.029 1.068 1.52 1.587 c 1.417 1.501 2.918 3.15 4.291 5.039 c 1.259 1.694 2.459 3.657 3.661 5.992 c 0.575 1.106 1.11 2.246 1.677 3.452 c 0.263 0.562 0.53 1.131 0.808 1.71 c 0.655 -1.789 1.077 -3.703 1.281 -5.796 c 0.24 -2.668 -0.046 -5.549 -0.827 -8.325 c -0.71 -2.527 -1.956 -5.113 -3.702 -7.686 c -1.569 -2.32 -3.276 -4.299 -4.891 -6.128 c -1.191 -1.347 -2.362 -2.566 -3.494 -3.744 c -0.508 -0.528 -1.003 -1.044 -1.481 -1.552 c -1.331 -1.409 -2.881 -3.109 -4.285 -5.036 c -1.249 -1.681 -2.449 -3.642 -3.661 -5.987 c -0.575 -1.101 -1.11 -2.236 -1.676 -3.438 C 50.327 4.546 50.055 3.968 49.771 3.38 z" style="stroke: none; stroke-width: 1; stroke-dasharray: none; stroke-linecap: butt; stroke-linejoin: miter; stroke-miterlimit: 10; fill: rgb(0,0,0); fill-rule: nonzero; opacity: 1;" transform=" matrix(1 0 0 1 0 0) " stroke-linecap="round" />
	<path d="M 40.295 90 c -0.375 0 -0.719 -0.21 -0.89 -0.544 c -0.657 -1.283 -1.236 -2.517 -1.795 -3.709 c -0.558 -1.188 -1.084 -2.31 -1.642 -3.384 c -1.156 -2.242 -2.299 -4.114 -3.497 -5.726 c -1.314 -1.808 -2.763 -3.399 -4.134 -4.851 c -0.482 -0.511 -0.982 -1.029 -1.495 -1.562 c -1.14 -1.184 -2.319 -2.407 -3.533 -3.771 c -1.581 -1.781 -3.405 -3.886 -5.058 -6.325 c -1.874 -2.762 -3.213 -5.544 -3.979 -8.268 c -0.859 -3.054 -1.159 -6.101 -0.892 -9.058 c 0.309 -3.131 1.068 -5.891 2.323 -8.445 c 0.167 -0.339 0.51 -0.555 0.888 -0.559 c 0.388 0.002 0.726 0.206 0.898 0.542 c 0.666 1.292 1.25 2.532 1.815 3.731 c 0.556 1.179 1.081 2.293 1.638 3.359 c 1.164 2.251 2.307 4.123 3.498 5.724 c 1.339 1.838 2.775 3.417 4.128 4.85 c 0.476 0.505 0.967 1.016 1.471 1.541 c 1.146 1.191 2.33 2.425 3.549 3.802 c 1.661 1.884 3.418 3.923 5.047 6.331 c 1.865 2.749 3.202 5.531 3.972 8.267 c 0.858 3.048 1.159 6.094 0.893 9.053 c -0.304 3.124 -1.059 5.883 -2.307 8.44 c -0.167 0.341 -0.51 0.558 -0.889 0.562 C 40.301 90 40.298 90 40.295 90 z M 16.667 37.18 c -0.662 1.791 -1.088 3.709 -1.295 5.813 c -0.242 2.667 0.044 5.549 0.826 8.328 c 0.708 2.516 1.956 5.103 3.709 7.687 c 1.586 2.34 3.36 4.385 4.898 6.118 c 1.187 1.335 2.352 2.544 3.479 3.713 c 0.517 0.537 1.021 1.061 1.508 1.576 c 1.417 1.5 2.917 3.148 4.292 5.039 c 1.257 1.691 2.457 3.654 3.661 5.991 c 0.575 1.107 1.11 2.247 1.676 3.453 c 0.263 0.562 0.531 1.131 0.808 1.71 c 0.655 -1.789 1.077 -3.702 1.281 -5.796 c 0.24 -2.67 -0.046 -5.551 -0.827 -8.325 c -0.712 -2.527 -1.958 -5.113 -3.703 -7.686 c -1.563 -2.313 -3.273 -4.295 -4.89 -6.129 c -1.19 -1.346 -2.361 -2.563 -3.492 -3.74 c -0.509 -0.53 -1.005 -1.046 -1.484 -1.555 c -1.331 -1.409 -2.881 -3.11 -4.284 -5.036 c -1.25 -1.682 -2.45 -3.642 -3.662 -5.987 c -0.574 -1.099 -1.107 -2.23 -1.672 -3.429 C 17.226 38.353 16.952 37.771 16.667 37.18 z" style="stroke: none; stroke-width: 1; stroke-dasharray: none; stroke-linecap: butt; stroke-linejoin: miter; stroke-miterlimit: 10; fill: rgb(0,0,0); fill-rule: nonzero; opacity: 1;" transform=" matrix(1 0 0 1 0 0) " stroke-linecap="round" />
</g>
</svg>