<svg xmlns="http://www.w3.org/2000/svg" xmlns:xlink="http://www.w3.org/1999/xlink" version="1.1" width="256" height="256" viewBox="0 0 256 256" xml:space="preserve">

<defs>
</defs>
<g style="stroke: none; stroke-width: 0; stroke-dasharray: none; stroke-linecap: butt; stroke-linejoin: miter; stroke-miterlimit: 10; fill: none; fill-rule: nonzero; opacity: 1;" transform="translate(1.4065934065934016 1.4065934065934016) scale(2.81 2.81)" >
	<path d="M 83.607 85.801 H 56.966 c -5.979 0 -11.639 -2.286 -15.938 -6.438 L 4.56 44.152 C 1.642 41.335 0.023 37.551 0 33.495 c -0.023 -4.055 1.554 -7.858 4.439 -10.708 L 20.291 7.136 c 3.948 -3.898 10.183 -3.949 14.194 -0.112 c 0.204 0.195 0.315 0.466 0.308 0.748 c -0.112 4.434 1.398 8.069 4.369 10.512 c 3.895 3.203 9.989 4.182 16.72 2.679 c 1.325 -0.293 2.688 0.024 3.746 0.873 c 1.068 0.856 1.681 2.132 1.681 3.5 v 20.129 c 0 4.533 3.688 8.22 8.221 8.22 h 2.887 C 82.112 53.686 90 61.573 90 71.27 v 8.14 C 90 82.934 87.132 85.801 83.607 85.801 z M 27.445 6.183 c -2.074 0 -4.145 0.793 -5.749 2.376 L 5.845 24.21 C 3.346 26.678 1.98 29.972 2 33.484 c 0.02 3.512 1.422 6.79 3.949 9.23 l 36.468 35.21 c 3.925 3.79 9.092 5.877 14.549 5.877 h 26.642 c 2.422 0 4.393 -1.97 4.393 -4.392 v -8.14 c 0 -8.593 -6.991 -15.584 -15.584 -15.584 h -2.887 c -5.636 0 -10.221 -4.585 -10.221 -10.22 V 25.336 c 0 -0.758 -0.34 -1.465 -0.932 -1.94 c -0.584 -0.467 -1.335 -0.644 -2.06 -0.481 c -7.334 1.637 -14.051 0.512 -18.426 -3.086 c -3.358 -2.762 -5.117 -6.781 -5.104 -11.646 C 31.245 6.848 29.344 6.183 27.445 6.183 z" style="stroke: none; stroke-width: 1; stroke-dasharray: none; stroke-linecap: butt; stroke-linejoin: miter; stroke-miterlimit: 10; fill: rgb(0,0,0); fill-rule: nonzero; opacity: 1;" transform=" matrix(1 0 0 1 0 0) " stroke-linecap="round" />
	<path d="M 89 72.27 H 57.399 c -3.51 0 -6.836 -1.341 -9.363 -3.775 L 3.344 25.452 c -0.397 -0.383 -0.41 -1.016 -0.026 -1.414 c 0.383 -0.397 1.016 -0.409 1.414 -0.026 l 44.691 43.041 c 2.154 2.074 4.986 3.217 7.977 3.217 H 89 c 0.553 0 1 0.447 1 1 S 89.553 72.27 89 72.27 z" style="stroke: none; stroke-width: 1; stroke-dasharray: none; stroke-linecap: butt; stroke-linejoin: miter; stroke-miterlimit: 10; fill: rgb(0,0,0); fill-rule: nonzero; opacity: 1;" transform=" matrix(1 0 0 1 0 0) " stroke-linecap="round" />
	<path d="M 58.89 47.832 c -3.08 0 -5.879 -1.945 -6.897 -5.001 l -1.459 -4.381 c -0.661 -1.986 -0.438 -4.164 0.613 -5.975 c 1.051 -1.81 2.83 -3.084 4.883 -3.495 l 4.083 -0.818 c 0.539 -0.108 1.068 0.242 1.177 0.784 c 0.108 0.542 -0.242 1.068 -0.784 1.177 l -4.083 0.818 c -1.49 0.298 -2.782 1.224 -3.546 2.538 c -0.763 1.314 -0.925 2.896 -0.444 4.338 l 1.459 4.381 c 0.875 2.631 3.571 4.13 6.268 3.482 c 0.543 -0.125 1.077 0.203 1.206 0.739 c 0.129 0.537 -0.202 1.077 -0.739 1.206 C 60.043 47.766 59.461 47.832 58.89 47.832 z" style="stroke: none; stroke-width: 1; stroke-dasharray: none; stroke-linecap: butt; stroke-linejoin: miter; stroke-miterlimit: 10; fill: rgb(0,0,0); fill-rule: nonzero; opacity: 1;" transform=" matrix(1 0 0 1 0 0) " stroke-linecap="round" />
	<path d="M 28.857 18.493 c -4.225 0 -8.669 -1.623 -13.429 -4.882 c -0.456 -0.312 -0.572 -0.935 -0.26 -1.39 c 0.313 -0.456 0.935 -0.571 1.39 -0.26 c 6.953 4.763 13.092 5.746 18.771 3.005 c 0.497 -0.24 1.095 -0.032 1.335 0.466 s 0.032 1.095 -0.466 1.335 C 33.815 17.916 31.375 18.493 28.857 18.493 z" style="stroke: none; stroke-width: 1; stroke-dasharray: none; stroke-linecap: butt; stroke-linejoin: miter; stroke-miterlimit: 10; fill: rgb(0,0,0); fill-rule: nonzero; opacity: 1;" transform=" matrix(1 0 0 1 0 0) " stroke-linecap="round" />
	<path d="M 20.937 42.007 c -0.101 0 -0.204 -0.016 -0.305 -0.048 c -0.526 -0.168 -0.816 -0.731 -0.648 -1.257 c 2.619 -8.18 -0.05 -15.954 -8.159 -23.766 c -0.397 -0.383 -0.41 -1.016 -0.026 -1.414 c 0.384 -0.398 1.017 -0.41 1.414 -0.026 c 8.591 8.277 11.511 16.962 8.676 25.816 C 21.753 41.736 21.36 42.007 20.937 42.007 z" style="stroke: none; stroke-width: 1; stroke-dasharray: none; stroke-linecap: butt; stroke-linejoin: miter; stroke-miterlimit: 10; fill: rgb(0,0,0); fill-rule: nonzero; opacity: 1;" transform=" matrix(1 0 0 1 0 0) " stroke-linecap="round" />
	<path d="M 26.958 47.806 c -0.354 0 -0.697 -0.188 -0.879 -0.521 c -0.265 -0.484 -0.085 -1.092 0.399 -1.356 c 6.174 -3.366 11.241 -4.836 18.072 -5.241 c 0.538 -0.04 1.024 0.387 1.057 0.939 c 0.033 0.551 -0.387 1.024 -0.939 1.057 c -6.509 0.387 -11.341 1.789 -17.233 5.001 C 27.284 47.767 27.12 47.806 26.958 47.806 z" style="stroke: none; stroke-width: 1; stroke-dasharray: none; stroke-linecap: butt; stroke-linejoin: miter; stroke-miterlimit: 10; fill: rgb(0,0,0); fill-rule: nonzero; opacity: 1;" transform=" matrix(1 0 0 1 0 0) " stroke-linecap="round" />
	<path d="M 33.513 54.117 c -0.354 0 -0.698 -0.188 -0.879 -0.521 c -0.265 -0.485 -0.085 -1.093 0.399 -1.356 c 6.172 -3.363 11.237 -4.831 18.064 -5.236 c 0.57 -0.021 1.025 0.388 1.058 0.938 c 0.033 0.552 -0.388 1.025 -0.938 1.058 c -6.507 0.387 -11.337 1.787 -17.227 4.996 C 33.838 54.078 33.674 54.117 33.513 54.117 z" style="stroke: none; stroke-width: 1; stroke-dasharray: none; stroke-linecap: butt; stroke-linejoin: miter; stroke-miterlimit: 10; fill: rgb(0,0,0); fill-rule: nonzero; opacity: 1;" transform=" matrix(1 0 0 1 0 0) " stroke-linecap="round" />
	<path d="M 40.054 60.377 c -0.355 0 -0.699 -0.189 -0.88 -0.523 c -0.264 -0.485 -0.083 -1.092 0.402 -1.355 c 6.126 -3.323 11.162 -4.775 17.959 -5.18 c 0.576 -0.029 1.025 0.388 1.058 0.938 c 0.033 0.552 -0.388 1.025 -0.938 1.058 c -6.479 0.386 -11.28 1.771 -17.125 4.941 C 40.378 60.338 40.215 60.377 40.054 60.377 z" style="stroke: none; stroke-width: 1; stroke-dasharray: none; stroke-linecap: butt; stroke-linejoin: miter; stroke-miterlimit: 10; fill: rgb(0,0,0); fill-rule: nonzero; opacity: 1;" transform=" matrix(1 0 0 1 0 0) " stroke-linecap="round" />
	<path d="M 38.965 85.801 H 1 c -0.552 0 -1 -0.447 -1 -1 s 0.448 -1 1 -1 h 37.965 c 0.552 0 1 0.447 1 1 S 39.518 85.801 38.965 85.801 z" style="stroke: none; stroke-width: 1; stroke-dasharray: none; stroke-linecap: butt; stroke-linejoin: miter; stroke-miterlimit: 10; fill: rgb(0,0,0); fill-rule: nonzero; opacity: 1;" transform=" matrix(1 0 0 1 0 0) " stroke-linecap="round" />
	<path d="M 23.512 71.801 H 1 c -0.552 0 -1 -0.447 -1 -1 s 0.448 -1 1 -1 h 22.512 c 0.552 0 1 0.447 1 1 S 24.064 71.801 23.512 71.801 z" style="stroke: none; stroke-width: 1; stroke-dasharray: none; stroke-linecap: butt; stroke-linejoin: miter; stroke-miterlimit: 10; fill: rgb(0,0,0); fill-rule: nonzero; opacity: 1;" transform=" matrix(1 0 0 1 0 0) " stroke-linecap="round" />
	<path d="M 9.1 57.801 H 1 c -0.552 0 -1 -0.447 -1 -1 s 0.448 -1 1 -1 h 8.1 c 0.552 0 1 0.447 1 1 S 9.652 57.801 9.1 57.801 z" style="stroke: none; stroke-width: 1; stroke-dasharray: none; stroke-linecap: butt; stroke-linejoin: miter; stroke-miterlimit: 10; fill: rgb(0,0,0); fill-rule: nonzero; opacity: 1;" transform=" matrix(1 0 0 1 0 0) " stroke-linecap="round" />
</g>
</svg>