<svg xmlns="http://www.w3.org/2000/svg" xmlns:xlink="http://www.w3.org/1999/xlink" version="1.1" width="256" height="256" viewBox="0 0 256 256" xml:space="preserve">

<defs>
</defs>
<g style="stroke: none; stroke-width: 0; stroke-dasharray: none; stroke-linecap: butt; stroke-linejoin: miter; stroke-miterlimit: 10; fill: none; fill-rule: nonzero; opacity: 1;" transform="translate(1.4065934065934016 1.4065934065934016) scale(2.81 2.81)" >
	<path d="M 89 73.819 H 1 c -0.552 0 -1 -0.447 -1 -1 V 31.411 c 0 -0.552 0.448 -1 1 -1 h 88 c 0.553 0 1 0.448 1 1 v 41.408 C 90 73.372 89.553 73.819 89 73.819 z M 2 71.819 h 86 V 32.411 H 2 V 71.819 z" style="stroke: none; stroke-width: 1; stroke-dasharray: none; stroke-linecap: butt; stroke-linejoin: miter; stroke-miterlimit: 10; fill: rgb(0,0,0); fill-rule: nonzero; opacity: 1;" transform=" matrix(1 0 0 1 0 0) " stroke-linecap="round" />
	<path d="M 35.671 32.411 c -0.552 0 -1 -0.448 -1 -1 V 18.18 H 16.414 v 13.231 c 0 0.552 -0.448 1 -1 1 s -1 -0.448 -1 -1 V 17.18 c 0 -0.552 0.448 -1 1 -1 h 20.257 c 0.552 0 1 0.448 1 1 v 14.231 C 36.671 31.963 36.224 32.411 35.671 32.411 z" style="stroke: none; stroke-width: 1; stroke-dasharray: none; stroke-linecap: butt; stroke-linejoin: miter; stroke-miterlimit: 10; fill: rgb(0,0,0); fill-rule: nonzero; opacity: 1;" transform=" matrix(1 0 0 1 0 0) " stroke-linecap="round" />
	<path d="M 74.586 32.411 c -0.553 0 -1 -0.448 -1 -1 V 18.18 H 55.328 v 13.231 c 0 0.552 -0.447 1 -1 1 s -1 -0.448 -1 -1 V 17.18 c 0 -0.552 0.447 -1 1 -1 h 20.258 c 0.553 0 1 0.448 1 1 v 14.231 C 75.586 31.963 75.139 32.411 74.586 32.411 z" style="stroke: none; stroke-width: 1; stroke-dasharray: none; stroke-linecap: butt; stroke-linejoin: miter; stroke-miterlimit: 10; fill: rgb(0,0,0); fill-rule: nonzero; opacity: 1;" transform=" matrix(1 0 0 1 0 0) " stroke-linecap="round" />
</g>
</svg>