<svg xmlns="http://www.w3.org/2000/svg" xmlns:xlink="http://www.w3.org/1999/xlink" version="1.1" width="256" height="256" viewBox="0 0 256 256" xml:space="preserve">

<defs>
</defs>
<g style="stroke: none; stroke-width: 0; stroke-dasharray: none; stroke-linecap: butt; stroke-linejoin: miter; stroke-miterlimit: 10; fill: none; fill-rule: nonzero; opacity: 1;" transform="translate(1.4065934065934016 1.4065934065934016) scale(2.81 2.81)" >
	<rect x="44" y="24.41" rx="0" ry="0" width="2" height="3.66" style="stroke: none; stroke-width: 1; stroke-dasharray: none; stroke-linecap: butt; stroke-linejoin: miter; stroke-miterlimit: 10; fill: rgb(0,0,0); fill-rule: nonzero; opacity: 1;" transform=" matrix(1 0 0 1 0 0) "/>
	<polygon points="53.46,54.87 44,45.42 44,31.91 46,31.91 46,44.59 54.87,53.46 " style="stroke: none; stroke-width: 1; stroke-dasharray: none; stroke-linecap: butt; stroke-linejoin: miter; stroke-miterlimit: 10; fill: rgb(0,0,0); fill-rule: nonzero; opacity: 1;" transform="  matrix(1 0 0 1 0 0) "/>
	<rect x="44" y="61.99" rx="0" ry="0" width="2" height="3.66" style="stroke: none; stroke-width: 1; stroke-dasharray: none; stroke-linecap: butt; stroke-linejoin: miter; stroke-miterlimit: 10; fill: rgb(0,0,0); fill-rule: nonzero; opacity: 1;" transform=" matrix(1 0 0 1 0 0) "/>
	<rect x="24.38" y="44.02" rx="0" ry="0" width="3.66" height="2" style="stroke: none; stroke-width: 1; stroke-dasharray: none; stroke-linecap: butt; stroke-linejoin: miter; stroke-miterlimit: 10; fill: rgb(0,0,0); fill-rule: nonzero; opacity: 1;" transform=" matrix(1 0 0 1 0 0) "/>
	<rect x="61.96" y="44.02" rx="0" ry="0" width="3.66" height="2" style="stroke: none; stroke-width: 1; stroke-dasharray: none; stroke-linecap: butt; stroke-linejoin: miter; stroke-miterlimit: 10; fill: rgb(0,0,0); fill-rule: nonzero; opacity: 1;" transform=" matrix(1 0 0 1 0 0) "/>
	<rect x="56.46" y="30.74" rx="0" ry="0" width="3.66" height="2" style="stroke: none; stroke-width: 1; stroke-dasharray: none; stroke-linecap: butt; stroke-linejoin: miter; stroke-miterlimit: 10; fill: rgb(0,0,0); fill-rule: nonzero; opacity: 1;" transform=" matrix(0.7071 -0.7071 0.7071 0.7071 -5.3716 50.5104) "/>
	<rect x="29.89" y="57.31" rx="0" ry="0" width="3.66" height="2" style="stroke: none; stroke-width: 1; stroke-dasharray: none; stroke-linecap: butt; stroke-linejoin: miter; stroke-miterlimit: 10; fill: rgb(0,0,0); fill-rule: nonzero; opacity: 1;" transform=" matrix(0.7071 -0.7071 0.7071 0.7071 -31.9432 39.5043) "/>
	<rect x="30.71" y="29.91" rx="0" ry="0" width="2" height="3.66" style="stroke: none; stroke-width: 1; stroke-dasharray: none; stroke-linecap: butt; stroke-linejoin: miter; stroke-miterlimit: 10; fill: rgb(0,0,0); fill-rule: nonzero; opacity: 1;" transform=" matrix(0.7071 -0.7071 0.7071 0.7071 -13.1541 31.7216) "/>
	<rect x="57.29" y="56.48" rx="0" ry="0" width="2" height="3.66" style="stroke: none; stroke-width: 1; stroke-dasharray: none; stroke-linecap: butt; stroke-linejoin: miter; stroke-miterlimit: 10; fill: rgb(0,0,0); fill-rule: nonzero; opacity: 1;" transform=" matrix(0.7071 -0.7071 0.7071 0.7071 -24.1607 58.2931) "/>
	<path d="M 71.891 45.003 c 0 -8.613 -4.075 -16.287 -10.393 -21.212 V 0.025 H 29.422 v 23.08 c -6.84 4.88 -11.313 12.874 -11.313 21.898 c 0 8.822 4.271 16.664 10.853 21.571 v 23.451 h 32.076 V 66.574 C 67.62 61.668 71.891 53.825 71.891 45.003 z M 31.422 2.025 h 28.076 v 8.299 H 45.459 v 2 h 14.039 v 10.05 c -4.187 -2.692 -9.161 -4.261 -14.498 -4.261 c -4.951 0 -9.59 1.351 -13.578 3.694 V 2.025 z M 59.038 88.025 H 30.962 v -8.299 H 45 v -2 H 30.962 v -9.798 c 4.089 2.513 8.897 3.966 14.038 3.966 c 5.141 0 9.949 -1.453 14.038 -3.966 V 88.025 z M 45 69.895 c -13.725 0 -24.891 -11.166 -24.891 -24.891 c 0 -8.554 4.338 -16.113 10.93 -20.595 h 0.383 v -0.25 c 3.908 -2.554 8.571 -4.046 13.578 -4.046 c 13.725 0 24.891 11.166 24.891 24.891 C 69.891 58.729 58.725 69.895 45 69.895 z" style="stroke: none; stroke-width: 1; stroke-dasharray: none; stroke-linecap: butt; stroke-linejoin: miter; stroke-miterlimit: 10; fill: rgb(0,0,0); fill-rule: nonzero; opacity: 1;" transform=" matrix(1 0 0 1 0 0) " stroke-linecap="round" />
</g>
</svg>