<svg xmlns="http://www.w3.org/2000/svg" xmlns:xlink="http://www.w3.org/1999/xlink" version="1.1" width="256" height="256" viewBox="0 0 256 256" xml:space="preserve">

<defs>
</defs>
<g style="stroke: none; stroke-width: 0; stroke-dasharray: none; stroke-linecap: butt; stroke-linejoin: miter; stroke-miterlimit: 10; fill: none; fill-rule: nonzero; opacity: 1;" transform="translate(1.4065934065934016 1.4065934065934016) scale(2.81 2.81)" >
	<path d="M 45 0 C 20.187 0 0 20.187 0 45 c 0 24.813 20.187 45 45 45 c 24.813 0 45 -20.187 45 -45 C 90 20.187 69.813 0 45 0 z M 45 88 C 21.29 88 2 68.71 2 45 C 2 21.29 21.29 2 45 2 c 23.71 0 43 19.29 43 43 C 88 68.71 68.71 88 45 88 z" style="stroke: none; stroke-width: 1; stroke-dasharray: none; stroke-linecap: butt; stroke-linejoin: miter; stroke-miterlimit: 10; fill: rgb(0,0,0); fill-rule: nonzero; opacity: 1;" transform=" matrix(1 0 0 1 0 0) " stroke-linecap="round" />
	<path d="M 45 37.877 c -3.928 0 -7.123 3.195 -7.123 7.123 s 3.195 7.123 7.123 7.123 s 7.123 -3.195 7.123 -7.123 S 48.928 37.877 45 37.877 z M 45 50.123 c -2.825 0 -5.123 -2.298 -5.123 -5.123 c 0 -2.825 2.298 -5.123 5.123 -5.123 c 2.825 0 5.123 2.298 5.123 5.123 C 50.123 47.825 47.825 50.123 45 50.123 z" style="stroke: none; stroke-width: 1; stroke-dasharray: none; stroke-linecap: butt; stroke-linejoin: miter; stroke-miterlimit: 10; fill: rgb(0,0,0); fill-rule: nonzero; opacity: 1;" transform=" matrix(1 0 0 1 0 0) " stroke-linecap="round" />
	<path d="M 79.564 50.687 c 0.059 -0.357 0.108 -0.717 0.156 -1.078 c 0.023 -0.171 0.045 -0.341 0.065 -0.512 c 0.038 -0.323 0.072 -0.648 0.101 -0.974 c 0.023 -0.255 0.041 -0.509 0.058 -0.764 c 0.017 -0.255 0.036 -0.509 0.048 -0.766 c 0.025 -0.533 0.04 -1.065 0.04 -1.594 c 0 -0.575 -0.015 -1.152 -0.044 -1.728 c -0.019 -0.388 -0.053 -0.772 -0.085 -1.156 c -0.015 -0.181 -0.024 -0.362 -0.042 -0.543 c -0.044 -0.451 -0.103 -0.898 -0.164 -1.344 c -0.016 -0.118 -0.028 -0.236 -0.045 -0.353 c -0.065 -0.44 -0.143 -0.875 -0.224 -1.31 c -0.02 -0.11 -0.035 -0.221 -0.057 -0.331 c -0.001 -0.005 -0.004 -0.008 -0.005 -0.013 C 76.202 22.138 61.998 9.967 45 9.967 c -16.999 0 -31.203 12.171 -34.369 28.256 c -0.001 0.004 -0.004 0.008 -0.005 0.012 c -0.02 0.104 -0.034 0.209 -0.054 0.313 c -0.083 0.443 -0.162 0.887 -0.228 1.335 c -0.015 0.099 -0.024 0.198 -0.038 0.297 c -0.064 0.464 -0.125 0.929 -0.17 1.398 c -0.016 0.163 -0.024 0.326 -0.037 0.489 c -0.033 0.402 -0.069 0.803 -0.088 1.209 C 9.982 43.851 9.967 44.426 9.967 45 c 0 0.529 0.016 1.062 0.04 1.595 c 0.011 0.255 0.031 0.507 0.048 0.76 c 0.018 0.257 0.036 0.514 0.059 0.772 c 0.029 0.323 0.063 0.645 0.1 0.965 c 0.021 0.174 0.044 0.348 0.067 0.523 c 0.047 0.358 0.097 0.716 0.155 1.071 c 0.004 0.023 0.006 0.045 0.01 0.068 c 0.001 0.005 0.004 0.008 0.005 0.013 c 2.419 14.534 13.811 26.063 28.274 28.691 c 0.006 0.001 0.01 0.005 0.016 0.006 c 0.047 0.008 0.094 0.014 0.14 0.022 c 0.445 0.079 0.893 0.15 1.344 0.212 c 0.089 0.012 0.178 0.022 0.267 0.034 c 0.429 0.055 0.859 0.107 1.293 0.146 c 0.181 0.017 0.361 0.027 0.542 0.041 c 0.345 0.026 0.689 0.055 1.036 0.071 c 0.548 0.026 1.095 0.042 1.639 0.042 c 0.543 0 1.09 -0.015 1.638 -0.042 c 0.349 -0.016 0.695 -0.045 1.042 -0.071 c 0.178 -0.014 0.356 -0.024 0.534 -0.041 c 0.435 -0.04 0.867 -0.091 1.298 -0.147 c 0.087 -0.011 0.175 -0.021 0.262 -0.033 c 0.451 -0.062 0.898 -0.133 1.343 -0.212 c 0.048 -0.008 0.096 -0.014 0.144 -0.023 c 0.006 -0.001 0.01 -0.005 0.016 -0.006 c 14.462 -2.628 25.855 -14.158 28.273 -28.691 c 0.001 -0.005 0.004 -0.008 0.005 -0.013 C 79.558 50.732 79.561 50.71 79.564 50.687 z M 50.083 77.635 c -0.798 0.124 -1.594 0.213 -2.388 0.279 c -0.11 0.009 -0.22 0.017 -0.33 0.025 c -1.578 0.115 -3.151 0.115 -4.729 0 c -0.11 -0.008 -0.221 -0.016 -0.331 -0.025 c -0.794 -0.066 -1.59 -0.155 -2.388 -0.279 V 64.731 c 0 -8.348 -6.792 -15.14 -15.139 -15.14 H 12.293 c -0.004 -0.031 -0.008 -0.062 -0.012 -0.093 c -0.091 -0.659 -0.157 -1.32 -0.208 -1.978 c -0.01 -0.133 -0.022 -0.266 -0.03 -0.399 c -0.047 -0.71 -0.075 -1.419 -0.075 -2.121 c 0 -0.516 0.016 -1.029 0.039 -1.539 c 0.01 -0.216 0.027 -0.433 0.042 -0.65 c 0.019 -0.284 0.039 -0.568 0.065 -0.85 c 0.025 -0.269 0.054 -0.539 0.086 -0.808 c 0.026 -0.224 0.055 -0.448 0.086 -0.671 c 0.04 -0.291 0.082 -0.581 0.13 -0.871 c 0.01 -0.062 0.023 -0.124 0.033 -0.186 h 6.802 c 6.896 0 14.047 -1.661 21.253 -4.936 c 2.818 -1.28 6.181 -1.28 8.995 0 c 0 0 0 0 0 0 c 7.208 3.275 14.359 4.936 21.255 4.936 h 6.803 c 0.011 0.067 0.025 0.133 0.036 0.2 c 0.046 0.28 0.086 0.561 0.125 0.842 c 0.032 0.231 0.062 0.463 0.089 0.696 c 0.031 0.264 0.06 0.527 0.084 0.791 c 0.026 0.287 0.047 0.575 0.066 0.864 c 0.014 0.213 0.031 0.426 0.041 0.639 c 0.024 0.511 0.039 1.024 0.039 1.541 c 0 0.701 -0.029 1.409 -0.075 2.118 c -0.009 0.136 -0.021 0.271 -0.031 0.406 c -0.051 0.658 -0.118 1.318 -0.209 1.977 c -0.004 0.03 -0.007 0.06 -0.012 0.09 H 65.222 c -8.348 0 -15.139 6.792 -15.139 15.14 V 77.635 z M 45 11.967 c 15.609 0 28.714 10.885 32.147 25.46 h -6.396 c -6.608 0 -13.481 -1.601 -20.427 -4.757 c -3.331 -1.515 -7.312 -1.515 -10.65 0 c -6.945 3.156 -13.817 4.756 -20.426 4.756 h -6.396 C 16.287 22.852 29.392 11.967 45 11.967 z M 12.629 51.592 h 12.149 c 7.245 0 13.139 5.895 13.139 13.14 v 12.529 C 25.216 74.474 15.226 64.363 12.629 51.592 z M 52.083 77.26 V 64.731 c 0 -7.245 5.894 -13.14 13.139 -13.14 h 12.149 C 74.775 64.363 64.785 74.474 52.083 77.26 z" style="stroke: none; stroke-width: 1; stroke-dasharray: none; stroke-linecap: butt; stroke-linejoin: miter; stroke-miterlimit: 10; fill: rgb(0,0,0); fill-rule: nonzero; opacity: 1;" transform=" matrix(1 0 0 1 0 0) " stroke-linecap="round" />
</g>
</svg>